<svg width="390" height="337" viewBox="0 0 390 337" fill="none" xmlns="http://www.w3.org/2000/svg">
<path opacity="0.1" fill-rule="evenodd" clip-rule="evenodd" d="M194.998 0C302.696 0 390 86.9778 390 194.274C390 245.109 370.394 291.374 338.313 326H51.6872C19.606 291.374 0 245.109 0 194.274C0 86.9778 87.304 0 194.998 0Z" fill="url(#paint0_linear)"/>
<path opacity="0.05" fill-rule="evenodd" clip-rule="evenodd" d="M190.998 8C295.382 8 380 92.5766 380 196.91C380 246.343 360.997 291.33 329.903 325H52.0968C21.0027 291.33 2 246.343 2 196.91C2 92.5766 86.6178 8 190.998 8Z" fill="url(#paint1_linear)"/>
<path opacity="0.35" fill-rule="evenodd" clip-rule="evenodd" d="M195.519 333.684C289.121 333.684 365 331.317 365 328.403C365 325.485 289.121 323.123 195.519 323.123C101.917 323.123 26.0371 325.489 26.0371 328.403C26.0327 331.317 101.912 333.684 195.519 333.684Z" fill="#B6D1FF"/>
<path opacity="0.35" fill-rule="evenodd" clip-rule="evenodd" d="M174.037 330.509C249.577 330.509 310.811 329.564 310.811 328.403C310.811 327.238 249.577 326.297 174.037 326.297C98.498 326.297 37.2637 327.242 37.2637 328.403C37.2637 329.564 98.498 330.509 174.037 330.509Z" fill="#B6D1FF"/>
<path fill-rule="evenodd" clip-rule="evenodd" d="M258.368 89.6259C258.912 92.8707 259.867 96.0525 257.898 100.367L276.308 100.488C270.093 94.6848 269.693 91.1997 269.767 85.7459L262.883 87.1309L258.368 89.6259Z" fill="url(#paint2_linear)"/>
<path fill-rule="evenodd" clip-rule="evenodd" d="M253.126 67.7137C250.276 71.4392 248.33 79.9145 249.28 86.3869C249.601 88.5729 249.898 91.2969 251.404 92.1038C253.04 92.9794 255.547 92.6017 259.352 92.1668C264.869 91.543 264.251 90.2268 267.124 85.1279L271.874 73.3448L262.002 63.582L253.126 67.7137Z" fill="url(#paint3_linear)"/>
<path fill-rule="evenodd" clip-rule="evenodd" d="M253.128 67.7137C252.694 68.286 252.276 68.967 251.887 69.7339C253.426 70.6609 254.399 70.8956 257.455 70.6037C257.655 73.6425 259.172 81.2765 262.823 80.3723C263.469 80.2121 264.219 79.3308 264.911 78.8787C265.764 78.3236 266.926 78.6097 266.422 80.2464C265.049 84.6872 263.841 85.5171 265.329 88.573C265.793 87.6745 266.325 86.5471 267.12 85.1336L271.87 73.3506L261.999 63.5877L253.128 67.7137Z" fill="#FFA698"/>
<path fill-rule="evenodd" clip-rule="evenodd" d="M258.431 69.3962C249.693 70.4606 248.434 64.8753 250.46 60.7321C252.995 55.553 260.692 52.0678 265.774 60.2513C269.522 58.4029 270.97 58.7806 272.629 62.9753C279.451 61.4073 281.889 67.5077 280.269 73.259C278.793 78.5125 274.867 81.8774 271.708 85.9634C270.764 87.1823 269.894 88.4642 269.173 89.8777C267.056 89.2196 266.58 88.3727 266.243 86.8447C266.008 85.7803 267.198 82.1807 267.439 79.8287C267.616 78.0775 266.449 76.7041 264.589 77.8887C264.04 78.2378 263.702 79.0961 262.844 79.8687C258.712 77.3965 259.061 73.8027 258.431 69.3962Z" fill="url(#paint4_linear)"/>
<path fill-rule="evenodd" clip-rule="evenodd" d="M258.431 69.3962C249.693 70.4607 248.434 64.8753 250.46 60.7321C250.494 60.6634 250.528 60.5947 250.563 60.5318C250.877 64.1142 252.989 66.2201 256.577 66.1C260.617 65.9626 261.802 66.2773 262.5 71.3419C262.872 74.0144 263.113 75.7026 264.772 75.2677C268.372 74.3349 270.386 75.92 270.415 80.2807C270.426 82.4382 271.245 84.0349 272.795 84.6071C272.423 85.0535 272.057 85.5056 271.702 85.9691C270.758 87.1881 270.163 88.6416 269.951 90.3413C263.708 88.3956 266.993 84.2237 267.433 79.8401C267.611 78.089 266.443 76.7155 264.583 77.9001C264.034 78.2492 263.696 79.1076 262.838 79.8802C258.712 77.3965 259.061 73.8027 258.431 69.3962Z" fill="#22043D"/>
<path fill-rule="evenodd" clip-rule="evenodd" d="M289.837 101.895C293.179 104.968 296.578 107.893 298.947 110.96C318.885 136.758 304.086 160.576 258.23 151.402C263.358 119.31 269.264 126.909 289.837 101.895Z" fill="url(#paint5_linear)"/>
<path opacity="0.35" fill-rule="evenodd" clip-rule="evenodd" d="M307.509 130.057C309.139 146.876 292.223 158.201 258.236 151.402C262.162 126.812 266.546 125.524 277.636 115.012L290.764 120.895C291.857 128.786 292.984 136.357 293.763 144.301C301.574 141.016 305.631 137.571 307.509 130.057Z" fill="#17ACC8"/>
<path fill-rule="evenodd" clip-rule="evenodd" d="M321.533 325.618L300.388 325.956C299.335 324.783 299.049 320.76 300.159 319.032C301.722 316.599 302.66 314.001 302.769 311.586L310.723 311.953L314.151 310.339C315.691 312.359 318.953 316.079 321.253 319.363C322.38 320.977 322.025 323.902 321.533 325.618Z" fill="#0F2F64"/>
<path opacity="0.3" fill-rule="evenodd" clip-rule="evenodd" d="M301.973 316.462C302.35 314.968 302.688 313.378 302.768 311.586L310.723 311.953L314.15 310.339C314.757 311.134 315.627 312.193 316.605 313.383C313.498 316.697 303.993 318.551 301.973 316.462Z" fill="#1E2353"/>
<path fill-rule="evenodd" clip-rule="evenodd" d="M287.276 173.074C289.216 178.951 291.768 183.387 294.446 195.404C297.353 208.463 298.183 220.773 300.363 233.472C304.638 258.36 309.978 283.557 317.423 310.499C313.119 314.081 304.695 314.081 301.622 312.994C292.432 292.083 286.778 271.688 278.686 250.491C267.601 221.442 255.503 192.354 245.906 164.759L287.276 173.074Z" fill="url(#paint6_linear)"/>
<path opacity="0.5" fill-rule="evenodd" clip-rule="evenodd" d="M269.672 172.674C274.016 185.824 298.435 280.678 301.616 313C292.426 292.089 286.772 271.693 278.68 250.497C267.595 221.448 255.497 192.36 245.9 164.765L269.672 172.674Z" fill="url(#paint7_linear)"/>
<path fill-rule="evenodd" clip-rule="evenodd" d="M260.46 308.628C261.112 311.867 263.087 314.339 263.396 316.72C263.934 320.817 261.57 324.937 256.723 324.977L225.008 325.258C226.69 314.425 243.641 320.428 249.335 308.416L256.717 308.834L260.46 308.628Z" fill="#0F2F64"/>
<path opacity="0.3" fill-rule="evenodd" clip-rule="evenodd" d="M260.459 308.628C260.671 309.686 261.026 310.659 261.415 311.575C258.445 313.635 252.711 315.031 246.072 312.748C247.354 311.638 248.47 310.23 249.334 308.416L256.717 308.834L260.459 308.628Z" fill="#1E2353"/>
<path fill-rule="evenodd" clip-rule="evenodd" d="M238.732 170.367C237.439 178.139 237.015 185.544 237.124 195.215C237.53 231.532 243.373 272.661 247.259 308.942C252.438 310.928 258.126 310.819 262.435 309.045C263.059 288.037 263.425 265.702 265.583 245.031C269.165 210.684 283.26 186.631 275.014 166.419L250.481 165.589L238.732 170.367Z" fill="url(#paint8_linear)"/>
<path fill-rule="evenodd" clip-rule="evenodd" d="M295.549 109.438C302.926 121.633 291.509 119.888 290.416 128.557C288.305 148.329 287.314 161.875 290.937 182.093C268.521 190.214 250.186 187.192 237.905 182.225C240.354 166.699 237.567 128.769 241.533 114.371C243.845 105.976 233.544 103.961 239.868 101.506C251.456 97.0025 267.863 93.2999 279.875 96.888C283.709 98.0326 286.857 99.2172 289.924 102.09C291.801 103.835 293.678 106.342 295.549 109.438Z" fill="url(#paint9_linear)"/>
<path opacity="0.35" fill-rule="evenodd" clip-rule="evenodd" d="M259.916 187.038C251.297 186.603 243.881 184.646 237.906 182.225C240.356 166.699 237.569 128.769 241.534 114.371C243.846 105.976 234.192 105.312 240.516 102.857C244.115 101.46 252.236 105.278 254.119 109.524C266.577 137.611 265.598 161.474 259.916 187.038Z" fill="#17ACC8"/>
<path fill-rule="evenodd" clip-rule="evenodd" d="M211.202 196.383L222.7 171.895C223.203 170.82 224.502 170.35 225.572 170.86L263.971 188.995C265.047 189.504 265.517 190.792 265.007 191.868L253.51 216.355C253.007 217.431 251.708 217.9 250.638 217.391L212.238 199.256C211.168 198.746 210.699 197.459 211.202 196.383Z" fill="#9FD2FB"/>
<path opacity="0.5" fill-rule="evenodd" clip-rule="evenodd" d="M240.431 177.778L251.51 183.009C248.78 187.467 246.319 191.547 244.322 196.417C244.351 199.965 243.303 203.742 236.665 210.701L229.672 207.399L234.193 201.379L240.431 177.778Z" fill="#9FD2FB"/>
<path fill-rule="evenodd" clip-rule="evenodd" d="M227.759 207.416C230.804 208.95 232.418 209.734 233.19 209.511C235.159 208.938 238.65 203.593 240.212 200.612C241.597 197.968 239.405 194.82 240.532 193.018C238.924 190.34 235.588 186.397 232.824 186.351C232.177 192.949 223.971 199.776 222.694 203.445C221.922 205.665 226.174 206.615 227.759 207.416Z" fill="url(#paint10_linear)"/>
<path fill-rule="evenodd" clip-rule="evenodd" d="M230.146 208.595C231.697 209.328 232.647 209.665 233.185 209.505C235.154 208.933 238.645 203.588 240.207 200.606C241.592 197.962 239.4 194.815 240.528 193.012C238.919 190.334 240.545 193.201 237.781 193.155C238.084 199.301 234.147 203.038 230.146 208.595Z" fill="url(#paint11_linear)"/>
<path fill-rule="evenodd" clip-rule="evenodd" d="M256.755 130.778C257.705 139.854 258.031 149.039 256.869 155.975C254.855 168.015 250.551 179.369 241.401 194.368C235.787 195.753 230.917 191.994 231.501 187.85C235.146 180.279 239.261 159.391 239.295 154.224C239.364 143.866 237.612 134.269 234.368 119.338C231.815 107.738 234.791 103 240.308 101.306C255.004 96.7851 255.708 120.775 256.755 130.778Z" fill="url(#paint12_linear)"/>
<path fill-rule="evenodd" clip-rule="evenodd" d="M68.6117 242.879C76.1925 234.983 87.0024 231.262 104.75 218.182C111.044 213.545 116.7 208.083 121.501 201.351C132.651 185.741 144.353 180.521 155.728 182.299C166.823 184.029 177.608 192.417 187.271 204.289C223.391 248.694 217.534 300.631 174.968 321.455C148.08 334.614 85.5879 326.633 67.3429 299.368C59.8046 288.097 53.1222 259.012 68.6117 242.879Z" fill="url(#paint13_linear)"/>
<path opacity="0.3" fill-rule="evenodd" clip-rule="evenodd" d="M161.079 183.653C170.281 186.839 179.173 194.341 187.27 204.295C223.389 248.7 217.532 300.637 174.967 321.461C155.902 330.79 118.945 329.491 92.5422 318.226L92.2571 318.105C81.5505 313.492 72.6038 307.241 67.3415 299.374C64.853 295.654 62.4555 289.997 60.9199 283.503C73.2107 296.534 114.405 311.853 162.129 275.794C172.866 267.679 179.64 254.769 177.121 242.145C175.404 233.538 170.329 226.686 168.393 204.866C167.944 199.646 168.405 190.584 161.079 183.653Z" fill="url(#paint14_linear)"/>
<path fill-rule="evenodd" clip-rule="evenodd" d="M193.181 274.447C191.312 274.307 189.746 274.24 188.18 274.016C190.869 263.831 191.907 253.78 191.446 244.172C191.251 240.063 190.778 236.033 190.044 232.106C193.042 231.663 196.356 231.323 200.113 231.05C196.55 230.582 193.078 230.346 189.71 230.4C186.293 213.921 178.214 199.379 166.378 188.575C164.333 186.706 162.069 184.861 159.793 183.222L158.7 182.918C160.946 184.533 163.805 187.313 165.838 189.17C177.522 199.828 185.497 214.17 188.896 230.424C176.569 230.813 165.644 235.268 156.661 247.006C168.994 238.339 176.102 234.273 189.255 232.227C189.983 236.124 190.45 240.13 190.644 244.208C191.099 253.762 190.062 263.758 187.385 273.888C186.153 273.67 184.89 273.336 183.446 272.772L183.161 273.518C184.636 274.089 185.922 274.435 187.179 274.665C187.051 275.133 186.918 275.606 186.784 276.073C185.516 275.855 184.217 275.515 182.73 274.938L182.444 275.685C183.956 276.274 185.273 276.62 186.566 276.85C186.396 277.427 186.22 277.997 186.038 278.574C184.775 278.356 183.488 278.016 182.014 277.445L181.722 278.192C183.215 278.774 184.52 279.12 185.795 279.345C182.153 290.665 176.436 302.081 168.448 313.17C165.292 317.547 161.383 322.232 157.499 326.487C132.99 324.769 119.801 319.671 107.152 314.785C97.4165 311.028 87.602 307.234 72.2036 304.794L72.0762 305.583C87.3957 308.011 97.1677 311.787 106.861 315.531C119.23 320.308 131.418 325.048 154.779 326.888C155.18 326.845 156.971 326.584 157.486 326.493L157.474 326.505C157.76 326.487 158.33 326.414 158.816 326.311C162.585 322.153 166.008 317.917 169.091 313.632C177.164 302.433 182.924 290.901 186.59 279.466C188.18 279.691 189.77 279.764 191.682 279.909L191.743 279.108C189.91 278.969 188.368 278.902 186.839 278.689C187.021 278.113 187.191 277.542 187.361 276.966C188.933 277.184 190.511 277.257 192.405 277.403L192.465 276.601C190.644 276.468 189.109 276.395 187.585 276.189C187.719 275.721 187.846 275.254 187.974 274.787C189.582 275.017 191.191 275.09 193.121 275.236L193.181 274.447ZM110.921 252.354C95.6199 250.581 95.9839 235.948 84.0208 232.069C95.7472 232.009 100.348 249.143 110.921 252.354ZM93.7383 259.643C86.382 258.132 82.4247 258.156 75.2141 259.583C81.6721 256.02 88.3 256.748 93.7383 259.643ZM93.8112 259.576C85.7569 254.235 82.0664 253.525 73.4113 253.137C81.9511 250.867 88.2394 253.968 93.8112 259.576ZM93.107 258.842C86.3517 251.929 82.8921 250.466 74.5161 248.263C83.3412 247.838 88.8341 252.19 93.107 258.842Z" fill="#0C7AE9"/>
<path opacity="0.5" fill-rule="evenodd" clip-rule="evenodd" d="M165.686 185.528C175.324 191.853 168.739 224.149 163.1 233.799C158.147 242.272 160.551 248.348 152.509 264.195C150.02 269.093 139.332 275.709 124.498 274.501C99.376 272.462 93.61 270.993 108.031 297.857C113.099 307.307 114.501 315.501 118.768 325.552C102.939 323.871 87.0366 315.659 85.4889 314.821C76.2268 309.808 69.8296 303.763 65.3927 296.042C62.8071 291.545 61.144 285.251 59.7177 280.389C59.5599 249.556 63.0621 235.826 107.977 226.704C109.306 221.478 109.488 217.454 108.978 214.601L126.052 202.056C148.211 183.046 149.565 178.633 165.686 185.528Z" fill="url(#paint15_linear)"/>
<path fill-rule="evenodd" clip-rule="evenodd" d="M51.6574 317.413C51.4874 319.428 51.7303 321.279 51.275 322.772C50.2675 326.08 47.1842 328.484 43.7124 326.979L21 317.164C25.4915 310.008 34.7658 318.087 42.5045 313.565C45.5574 311.787 51.9062 314.433 51.6574 317.413Z" fill="url(#paint16_linear)"/>
<path opacity="0.5" fill-rule="evenodd" clip-rule="evenodd" d="M51.6567 317.413C51.5718 318.445 51.5959 319.44 51.5717 320.363C49.0043 320.697 42.5281 319.513 39.1777 314.742C40.3006 314.542 41.4174 314.178 42.5038 313.577C45.5993 311.859 51.9056 314.433 51.6567 317.413Z" fill="url(#paint17_linear)"/>
<path fill-rule="evenodd" clip-rule="evenodd" d="M129.062 259.68C116.953 258.599 86.2839 258.308 77.1007 266.854C65.9691 277.208 59.4201 303.854 52.0881 317.553C48.0944 320.12 41.0415 316.09 41.3936 313.007C48.2339 283.606 52.6587 252.681 62.3154 243.152C75.6926 229.957 94.7509 228.118 129.056 226.874C138.118 226.874 145.462 234.218 145.462 243.28C145.468 252.336 138.124 259.68 129.062 259.68Z" fill="url(#paint18_linear)"/>
<path opacity="0.5" fill-rule="evenodd" clip-rule="evenodd" d="M129.064 259.68C116.955 258.599 87.3418 255.88 78.1586 264.42C67.0271 274.775 59.4218 303.854 52.0898 317.553C59.3065 279.005 62.8027 254.545 67.3973 247.061C73.5094 237.101 83.973 230.862 131.176 229.198C140.238 229.198 145.463 234.218 145.463 243.274C145.469 252.336 138.125 259.68 129.064 259.68Z" fill="url(#paint19_linear)"/>
<path fill-rule="evenodd" clip-rule="evenodd" d="M105.835 314.603C107.177 316.114 108.688 317.213 109.459 318.572C111.158 321.583 110.776 325.473 107.298 326.954L84.5375 336.647C82.4496 328.46 94.6919 327.306 96.7494 318.584C97.5567 315.149 103.851 312.369 105.835 314.603Z" fill="url(#paint20_linear)"/>
<path opacity="0.5" fill-rule="evenodd" clip-rule="evenodd" d="M105.834 314.603C106.525 315.38 107.254 316.041 107.91 316.697C106.386 318.785 101.063 322.669 95.291 321.801C95.9222 320.848 96.4258 319.786 96.7414 318.584C97.6336 315.167 103.849 312.369 105.834 314.603Z" fill="url(#paint21_linear)"/>
<path fill-rule="evenodd" clip-rule="evenodd" d="M133.857 235.96C112.116 235.329 85.0157 234.218 74.1694 246.047C64.7981 256.269 67.6203 269.537 73.1982 282.361C79.3163 296.443 89.0945 311.465 95.5586 318.245C98.6176 319.27 105.925 317.207 107.236 314.148C102.211 306.943 83.978 273.039 93.8106 265.84C97.859 262.878 105.846 264.547 114.386 265.986C122.835 267.412 128.589 268.177 135.338 265.33C141.517 262.72 147.18 257.434 150.542 247.638L133.857 235.96Z" fill="url(#paint22_linear)"/>
<path opacity="0.5" fill-rule="evenodd" clip-rule="evenodd" d="M133.857 235.96C130.677 235.869 127.387 235.766 124.049 235.693C125.39 242.473 136.831 255.571 145.322 257.604C147.374 254.964 149.152 251.686 150.542 247.638L133.857 235.96Z" fill="url(#paint23_linear)"/>
<path fill-rule="evenodd" clip-rule="evenodd" d="M111.283 152.079C115.071 164.607 116.728 170.446 120.278 169.365C121.723 168.922 124.181 166.525 126.737 163.794C130.536 159.727 127.562 153.554 125.771 146.168L118.184 142.829L111.283 152.079Z" fill="url(#paint24_linear)"/>
<path fill-rule="evenodd" clip-rule="evenodd" d="M111.283 152.079L111.969 154.349C115.811 155.478 120.291 150.792 121.353 149.803C122.913 153.524 125.146 157.942 128.49 160.06C129.025 156.309 127.082 151.557 125.771 146.155L118.184 142.817L111.283 152.079Z" fill="#FFA698"/>
<path fill-rule="evenodd" clip-rule="evenodd" d="M131.817 140.516C135.505 145.209 135.716 146.385 138.378 147.231C141.04 148.077 147.061 150.304 155.697 146.851C157.758 146.03 159.367 145.425 161.763 145.124C168.685 144.24 174.366 151.488 176.721 158.038C179.717 166.358 179.618 175.947 173.164 182.614C171.119 184.726 151.347 196.294 156.119 214.671C140.105 218.627 124.216 210.34 109.302 179.206C105.77 171.836 112.58 167.978 113.059 165.516C113.688 162.284 112.202 158.951 108.625 153.089C108.148 152.3 107.799 151.496 107.56 150.68C106.929 148.556 107.028 146.41 107.402 144.63C109.312 135.457 124.074 130.663 131.817 140.516ZM138.656 149.84C147.801 152.738 160.814 145.009 167.779 149.238C171.051 151.227 174.302 155.114 175.756 163.75C176.179 155.475 169.307 146.097 161.928 146.362C159.687 146.445 158.256 146.895 156.222 147.627C149.727 149.954 144.703 149.885 138.656 149.84Z" fill="url(#paint25_linear)"/>
<path fill-rule="evenodd" clip-rule="evenodd" d="M110.437 146.419C113.306 153.057 120.365 150.514 124.065 156.505C126.421 152.845 127.606 153.832 129.507 155.588C129.775 155.836 130.148 156.773 130.609 157.78C133.672 159.272 139.977 156.267 147.89 156.304C159.182 156.352 172.019 161.302 169.01 181.366C169.948 158.875 153.678 157.368 142.575 158.998C140.223 159.344 137.979 159.762 135.821 160.245C142.694 159.274 147.917 159.22 151.83 159.81C159.112 160.91 166.339 165.666 166.458 178.158C166.576 190.392 149.518 194.506 154.225 213.95C130.894 217.86 114.502 196.405 112.074 175.301C111.596 171.135 115.366 170.054 115.131 167.791C114.626 163.011 112.212 158.872 112.076 158.136C111.509 155.177 106.981 152.962 110.437 146.419Z" fill="#22043D"/>
<path fill-rule="evenodd" clip-rule="evenodd" d="M108.74 152.838C115.362 162.938 110.916 164.844 108.592 168.716C102.345 179.125 110.054 186.082 119.38 192.327C113.468 186.317 103.152 178.737 109.535 168.876C111.876 165.257 117.598 164.56 108.74 152.838Z" fill="#25063F"/>
<path fill-rule="evenodd" clip-rule="evenodd" d="M108.74 153.19C116.113 164.118 111.64 164.547 109.316 168.419C103.069 178.828 110.141 184.128 119.372 192.322C113.46 186.312 103.144 178.732 109.527 168.872C111.876 165.257 117.604 164.91 108.74 153.19Z" fill="#150226"/>
<path fill-rule="evenodd" clip-rule="evenodd" d="M110.917 148.83C110.495 151.441 110.696 153.79 112.275 156.565C112.674 157.266 112.768 157.777 112.762 158.345C112.721 161.588 113.202 162.38 114.764 164.293C116.286 166.149 116.73 167.274 117.789 167.679C118.877 168.095 120.086 167.781 121.072 167.421C123.1 166.692 125.93 163.96 127.438 162.064C128.555 160.653 128.265 160.146 128.288 158.533C129.583 155.898 127.686 155.196 126.936 155.368C124.79 155.848 125.448 158.211 124.492 159.204C122.978 155.204 112.443 151.905 110.917 148.83Z" fill="url(#paint26_linear)"/>
<path fill-rule="evenodd" clip-rule="evenodd" d="M110.715 150.771C110.698 152.7 111.125 154.578 112.302 156.715C112.702 157.438 112.8 157.961 112.802 158.542C112.808 161.857 113.288 162.674 114.837 164.652C115.514 165.511 115.979 166.222 116.377 166.779C117.138 167.283 118.202 167.239 118.895 166.463C119.537 165.746 119.897 164.422 119.395 162.704C119.04 161.483 121 159.714 120.966 158.33C120.94 157.18 119.411 156.558 118.531 156.278C115.451 155.295 112.904 153.241 110.715 150.771Z" fill="url(#paint27_linear)"/>
<path fill-rule="evenodd" clip-rule="evenodd" d="M128.362 158.577C127.736 170.913 136.931 172.542 140.721 171.663C145.154 170.642 148.531 164.586 154.553 168.474C143.765 155.613 144.281 167.041 128.362 158.577Z" fill="#22043D"/>
<path fill-rule="evenodd" clip-rule="evenodd" d="M127.328 158.198C129.775 164.046 132.442 169.307 139.948 172.486L131.395 182.475C128.563 176.454 126.439 172.442 122.377 169.032L125.836 159.075L127.328 158.198Z" fill="#FFA698"/>
<path fill-rule="evenodd" clip-rule="evenodd" d="M116.388 162.919C116.2 165.007 116.309 167.398 115.818 169.177C115.223 171.332 113.687 174.639 111.836 178.579L118.306 177.195C118.513 176.636 118.737 176.114 118.986 175.635C119.751 174.16 124.06 172.606 124.157 169.025L124.309 163.453L116.388 162.919Z" fill="url(#paint28_linear)"/>
<path fill-rule="evenodd" clip-rule="evenodd" d="M116.387 162.919C116.223 164.71 116.284 166.725 115.992 168.388C118.462 172.315 120.587 171.101 123.852 170.524C124.034 170.069 124.144 169.571 124.162 169.025L124.313 163.453L116.387 162.919Z" fill="url(#paint29_linear)"/>
<path fill-rule="evenodd" clip-rule="evenodd" d="M119.817 176.916C118.209 175.016 114.992 174.239 113.371 174.415C110.798 178.821 108.352 183.671 106.428 188.217C103.15 195.968 99.4052 207.882 102.592 215.257C103.593 217.563 107.575 221.672 111.374 221.824C115.502 221.988 120.254 220.003 122.045 212.877C123.932 205.369 115.356 198.238 117.511 190.438C119.386 183.653 119.762 178.33 119.817 176.916Z" fill="url(#paint30_linear)"/>
<path opacity="0.5" fill-rule="evenodd" clip-rule="evenodd" d="M109.481 219.475C114.385 218.091 117.93 192.818 119.314 180.715C112.552 192.035 104.88 205.454 109.092 218.401L109.481 219.475Z" fill="url(#paint31_linear)"/>
<path fill-rule="evenodd" clip-rule="evenodd" d="M130.858 170.822C121.401 175.641 100.17 216.525 111.63 220.835C118.136 223.287 124.024 215.117 128.697 208.847C140.709 192.751 144.739 163.745 130.858 170.822Z" fill="url(#paint32_linear)"/>
<path opacity="0.5" fill-rule="evenodd" clip-rule="evenodd" d="M132.981 169.996C129.527 170.876 127.13 173.85 126.214 174.882C123.379 178.069 121.558 181.735 120.721 183.568C118.687 188.005 118.323 192.029 117.51 199.925C117.237 202.553 117.395 207.202 117 209.497C115.695 217.059 105.547 218.122 102.5 215.038C103.483 217.521 105.644 219.402 108.248 220.877C112.496 223.281 117.904 220.683 120.812 218.146C123.701 215.627 126.353 211.991 128.708 208.847C136.914 197.849 141.393 180.83 138.984 173.401C137.8 169.82 135.439 169.377 132.981 169.996Z" fill="url(#paint33_linear)"/>
<path fill-rule="evenodd" clip-rule="evenodd" d="M122.769 231.286C127.491 239.413 137.694 250.782 149.918 253.586C159.174 228.276 163.726 192.041 148.832 173.644C142.27 165.541 131.37 168.37 125.743 176.035C117.064 187.883 120.378 217.114 122.769 231.286Z" fill="url(#paint34_linear)"/>
<path opacity="0.5" fill-rule="evenodd" clip-rule="evenodd" d="M122.768 231.286C123.49 232.531 125.875 236.209 127.162 237.671C143.277 238.728 155.701 232.798 157.261 224.519C158.123 219.93 158.608 211.949 158.438 204.787C156.727 189.68 148.921 175.592 143.653 174.275C140.072 173.377 130.069 180.976 127.72 183.902C126.725 197.728 148.915 214.619 121.014 218.498C121.53 223.36 122.179 227.784 122.768 231.286Z" fill="url(#paint35_linear)"/>
<path fill-rule="evenodd" clip-rule="evenodd" d="M67.9777 235.408L93.2936 233.981C95.7093 233.866 96.2796 235.371 96.4132 236.615L66.278 238.315L52.8281 211.287C54.7582 210.298 55.6807 210.608 56.664 212.695L67.9777 235.408Z" fill="url(#paint36_linear)"/>
<path fill-rule="evenodd" clip-rule="evenodd" d="M95.2803 223.863C94.2181 224.088 92.5247 224.932 90.6795 226.273C86.8618 229.059 83.7481 231.669 78.7832 234.103C81.7633 236.555 85.9998 235.068 89.7629 233.101C92.2939 231.778 91.942 231.42 94.8129 231.93C97.696 232.44 98.3696 232.67 101.86 230.443C103.51 230.607 105.125 230.813 106.715 231.044L106.005 223.748C104.882 223.693 103.771 223.621 102.685 223.536C99.0918 223.232 96.567 223.584 95.2803 223.863Z" fill="url(#paint37_linear)"/>
<path fill-rule="evenodd" clip-rule="evenodd" d="M95.5713 229.884C92.9735 229.108 92.2753 229.338 91.1039 230.188C87.2922 232.968 83.4444 234.364 78.7891 234.091C81.7692 236.543 86.0056 235.056 89.7687 233.089C92.2997 231.766 91.9476 231.408 94.8185 231.918C97.7015 232.428 98.3755 232.658 101.865 230.431L106.678 231.026L106.691 230.746L106.005 223.736C104.882 223.681 103.771 223.609 102.685 223.524C102.387 223.499 102.096 223.481 101.817 223.463C100.809 224.689 100.214 225.727 99.8502 226.595C99.1946 228.155 98.6364 230.801 95.5713 229.884Z" fill="url(#paint38_linear)"/>
<path fill-rule="evenodd" clip-rule="evenodd" d="M149.741 182.906C159.04 203.889 164.368 222.2 150.858 229.575C141.705 234.57 114.046 232.986 103.018 231.141C101.786 228.549 102.01 224.003 103.473 223.214C115.454 220.804 127.199 220.78 136.679 217.563C145.371 214.613 137.675 202.007 132.127 193.728C127.8 187.27 123.284 178.676 133.244 173.68C141.978 169.292 146.718 176.084 149.741 182.906Z" fill="url(#paint39_linear)"/>
<defs>
<linearGradient id="paint0_linear" x1="150.675" y1="302.078" x2="242.788" y2="76.3354" gradientUnits="userSpaceOnUse">
<stop stop-color="#FF66BC"/>
<stop offset="0.56" stop-color="#FF8ADC"/>
<stop offset="1" stop-color="#FFBBA8"/>
</linearGradient>
<linearGradient id="paint1_linear" x1="148.039" y1="301.738" x2="237.817" y2="82.4325" gradientUnits="userSpaceOnUse">
<stop stop-color="#FF66BC"/>
<stop offset="0.56" stop-color="#FF8ADC"/>
<stop offset="1" stop-color="#FFBBA8"/>
</linearGradient>
<linearGradient id="paint2_linear" x1="265.077" y1="92.0517" x2="266.846" y2="99.3533" gradientUnits="userSpaceOnUse">
<stop stop-color="#FF8A78"/>
<stop offset="1" stop-color="#FFA799"/>
</linearGradient>
<linearGradient id="paint3_linear" x1="258.12" y1="74.6784" x2="262.788" y2="86.358" gradientUnits="userSpaceOnUse">
<stop stop-color="#FFB89E"/>
<stop offset="1" stop-color="#FFA799"/>
</linearGradient>
<linearGradient id="paint4_linear" x1="258.924" y1="60.0125" x2="266.088" y2="68.4517" gradientUnits="userSpaceOnUse">
<stop stop-color="#5A2D68"/>
<stop offset="1" stop-color="#22043D"/>
</linearGradient>
<linearGradient id="paint5_linear" x1="278.498" y1="125.504" x2="284.617" y2="145.561" gradientUnits="userSpaceOnUse">
<stop stop-color="#94E69A"/>
<stop offset="1" stop-color="#17ADC9"/>
</linearGradient>
<linearGradient id="paint6_linear" x1="257.126" y1="190.557" x2="318.433" y2="276.758" gradientUnits="userSpaceOnUse">
<stop stop-color="#235DA3"/>
<stop offset="1" stop-color="#123A76"/>
</linearGradient>
<linearGradient id="paint7_linear" x1="257.081" y1="191.499" x2="305.595" y2="278.682" gradientUnits="userSpaceOnUse">
<stop stop-color="#235DA3"/>
<stop offset="1" stop-color="#123A76"/>
</linearGradient>
<linearGradient id="paint8_linear" x1="244.278" y1="196.923" x2="276.652" y2="275.205" gradientUnits="userSpaceOnUse">
<stop stop-color="#235DA3"/>
<stop offset="1" stop-color="#123A76"/>
</linearGradient>
<linearGradient id="paint9_linear" x1="260.532" y1="122.116" x2="274.471" y2="172.021" gradientUnits="userSpaceOnUse">
<stop stop-color="#94E69A"/>
<stop offset="1" stop-color="#17ADC9"/>
</linearGradient>
<linearGradient id="paint10_linear" x1="231.333" y1="197.536" x2="238.195" y2="199.322" gradientUnits="userSpaceOnUse">
<stop stop-color="#FFB89E"/>
<stop offset="1" stop-color="#FFA799"/>
</linearGradient>
<linearGradient id="paint11_linear" x1="239.583" y1="201.119" x2="234.019" y2="200.431" gradientUnits="userSpaceOnUse">
<stop stop-color="#FF8A78"/>
<stop offset="1" stop-color="#FFA799"/>
</linearGradient>
<linearGradient id="paint12_linear" x1="246.297" y1="123.955" x2="239.597" y2="180.529" gradientUnits="userSpaceOnUse">
<stop stop-color="#94E69A"/>
<stop offset="1" stop-color="#17ADC9"/>
</linearGradient>
<linearGradient id="paint13_linear" x1="125.508" y1="302.852" x2="149.199" y2="217.277" gradientUnits="userSpaceOnUse">
<stop stop-color="#1C8EF4"/>
<stop offset="1" stop-color="#00CFDD"/>
</linearGradient>
<linearGradient id="paint14_linear" x1="146.472" y1="306.712" x2="124.628" y2="227.838" gradientUnits="userSpaceOnUse">
<stop stop-color="#1C8EF4"/>
<stop offset="1" stop-color="#00CFDD"/>
</linearGradient>
<linearGradient id="paint15_linear" x1="128.147" y1="301.523" x2="110.917" y2="217.842" gradientUnits="userSpaceOnUse">
<stop stop-color="#1C8EF4"/>
<stop offset="1" stop-color="#00CFDD"/>
</linearGradient>
<linearGradient id="paint16_linear" x1="34.811" y1="310.842" x2="37.0924" y2="320.181" gradientUnits="userSpaceOnUse">
<stop stop-color="#3E4795"/>
<stop offset="1" stop-color="#273088"/>
</linearGradient>
<linearGradient id="paint17_linear" x1="51.9584" y1="316.399" x2="44.5075" y2="316.971" gradientUnits="userSpaceOnUse">
<stop stop-color="#3E4795"/>
<stop offset="1" stop-color="#273088"/>
</linearGradient>
<linearGradient id="paint18_linear" x1="65.2081" y1="246.909" x2="89.6993" y2="271.702" gradientUnits="userSpaceOnUse">
<stop stop-color="#3E4795"/>
<stop offset="1" stop-color="#273088"/>
</linearGradient>
<linearGradient id="paint19_linear" x1="71.4752" y1="247.474" x2="92.5378" y2="270.425" gradientUnits="userSpaceOnUse">
<stop stop-color="#3E4795"/>
<stop offset="1" stop-color="#273088"/>
</linearGradient>
<linearGradient id="paint20_linear" x1="93.2138" y1="324.433" x2="98.4339" y2="327.427" gradientUnits="userSpaceOnUse">
<stop stop-color="#3E4795"/>
<stop offset="1" stop-color="#273088"/>
</linearGradient>
<linearGradient id="paint21_linear" x1="104.427" y1="314.772" x2="100.12" y2="320.058" gradientUnits="userSpaceOnUse">
<stop stop-color="#3E4795"/>
<stop offset="1" stop-color="#273088"/>
</linearGradient>
<linearGradient id="paint22_linear" x1="87.2828" y1="241.584" x2="113.998" y2="272.507" gradientUnits="userSpaceOnUse">
<stop stop-color="#3E4795"/>
<stop offset="1" stop-color="#273088"/>
</linearGradient>
<linearGradient id="paint23_linear" x1="127.705" y1="235.173" x2="139.801" y2="246.693" gradientUnits="userSpaceOnUse">
<stop stop-color="#3E4795"/>
<stop offset="1" stop-color="#273088"/>
</linearGradient>
<linearGradient id="paint24_linear" x1="120.372" y1="151.619" x2="118.711" y2="167.003" gradientUnits="userSpaceOnUse">
<stop stop-color="#FFB89E"/>
<stop offset="1" stop-color="#FFA799"/>
</linearGradient>
<linearGradient id="paint25_linear" x1="143.606" y1="148.883" x2="139.037" y2="205.563" gradientUnits="userSpaceOnUse">
<stop stop-color="#5A2D68"/>
<stop offset="1" stop-color="#22043D"/>
</linearGradient>
<linearGradient id="paint26_linear" x1="122.5" y1="163.5" x2="123.013" y2="166.938" gradientUnits="userSpaceOnUse">
<stop stop-color="#FFA698"/>
<stop offset="1" stop-color="#FF9685"/>
</linearGradient>
<linearGradient id="paint27_linear" x1="111.683" y1="157.169" x2="119.006" y2="162.082" gradientUnits="userSpaceOnUse">
<stop stop-color="#FFB89E"/>
<stop offset="1" stop-color="#FFA799"/>
</linearGradient>
<linearGradient id="paint28_linear" x1="118.461" y1="165.33" x2="118.234" y2="169.493" gradientUnits="userSpaceOnUse">
<stop stop-color="#FFB89E"/>
<stop offset="1" stop-color="#FFA799"/>
</linearGradient>
<linearGradient id="paint29_linear" x1="120.335" y1="176.078" x2="120.067" y2="161.326" gradientUnits="userSpaceOnUse">
<stop stop-color="#FF8A78"/>
<stop offset="1" stop-color="#FFA799"/>
</linearGradient>
<linearGradient id="paint30_linear" x1="112.476" y1="222.19" x2="110.459" y2="182.135" gradientUnits="userSpaceOnUse">
<stop stop-color="#965CF2"/>
<stop offset="1" stop-color="#FF8ADC"/>
</linearGradient>
<linearGradient id="paint31_linear" x1="114.813" y1="228.284" x2="113.071" y2="181.87" gradientUnits="userSpaceOnUse">
<stop stop-color="#965CF2"/>
<stop offset="1" stop-color="#FF8ADC"/>
</linearGradient>
<linearGradient id="paint32_linear" x1="126.933" y1="217.33" x2="122.697" y2="186.878" gradientUnits="userSpaceOnUse">
<stop stop-color="#965CF2"/>
<stop offset="1" stop-color="#FF8ADC"/>
</linearGradient>
<linearGradient id="paint33_linear" x1="124.328" y1="232.176" x2="119.106" y2="174.7" gradientUnits="userSpaceOnUse">
<stop stop-color="#965CF2"/>
<stop offset="1" stop-color="#FF8ADC"/>
</linearGradient>
<linearGradient id="paint34_linear" x1="141.825" y1="254.661" x2="138.102" y2="182.522" gradientUnits="userSpaceOnUse">
<stop stop-color="#965CF2"/>
<stop offset="1" stop-color="#FF8ADC"/>
</linearGradient>
<linearGradient id="paint35_linear" x1="142.727" y1="251.537" x2="137.207" y2="177.988" gradientUnits="userSpaceOnUse">
<stop stop-color="#965CF2"/>
<stop offset="1" stop-color="#FF8ADC"/>
</linearGradient>
<linearGradient id="paint36_linear" x1="58.4443" y1="211.021" x2="79.1041" y2="234.408" gradientUnits="userSpaceOnUse">
<stop stop-color="#3E4795"/>
<stop offset="1" stop-color="#273088"/>
</linearGradient>
<linearGradient id="paint37_linear" x1="92.4186" y1="229.303" x2="144.958" y2="225.999" gradientUnits="userSpaceOnUse">
<stop stop-color="#FFB89E"/>
<stop offset="1" stop-color="#FFA799"/>
</linearGradient>
<linearGradient id="paint38_linear" x1="144.81" y1="234.179" x2="73.6989" y2="227.693" gradientUnits="userSpaceOnUse">
<stop stop-color="#FF8A78"/>
<stop offset="1" stop-color="#FFA799"/>
</linearGradient>
<linearGradient id="paint39_linear" x1="135.267" y1="240.059" x2="123.813" y2="189.333" gradientUnits="userSpaceOnUse">
<stop stop-color="#965CF2"/>
<stop offset="1" stop-color="#FF8ADC"/>
</linearGradient>
</defs>
</svg>
